<svg width="19" height="30" viewBox="0 0 19 30" fill="none" xmlns="http://www.w3.org/2000/svg">
<path d="M18.2165 28.3868C18.4639 28.6605 18.5264 29.0545 18.377 29.3918C18.2264 29.7292 17.8925 29.9463 17.5237 29.9463H1.49176C1.12289 29.9463 0.789036 29.7292 0.638453 29.3918C0.489036 29.0545 0.552071 28.6605 0.798958 28.3868L5.77172 22.5017V12.1856H5.15013C4.63417 12.1856 4.21627 11.7677 4.21627 11.2517C4.21627 10.7358 4.63417 10.3179 5.15013 10.3179H6.70557C7.22153 10.3179 7.63942 10.7358 7.63942 11.2517V22.8613C7.63942 23.093 7.55363 23.3154 7.39837 23.487L3.59409 28.0786H15.4213L11.6171 23.487C11.4618 23.3154 11.376 23.093 11.376 22.8613V11.2517C11.376 10.7358 11.7939 10.3179 12.3099 10.3179H13.8653C14.3813 10.3179 14.7992 10.7358 14.7992 11.2517C14.7992 11.7677 14.3813 12.1856 13.8653 12.1856H13.2437V22.5017L18.2165 28.3868ZM8.57386 9.38754C7.54429 9.38754 6.71083 8.55291 6.71083 7.5245C6.71083 6.49668 7.54429 5.66263 8.57386 5.66263C9.60285 5.66263 10.4369 6.49668 10.4369 7.5245C10.4369 8.55291 9.60285 9.38754 8.57386 9.38754ZM14.6579 6.61516C12.8381 6.61516 11.3626 5.14668 11.3626 3.335C11.3626 1.52333 12.8381 0.0542641 14.6579 0.0542641C16.4783 0.0542641 17.9532 1.52333 17.9532 3.335C17.9532 5.14668 16.4778 6.61516 14.6579 6.61516ZM14.6433 1.91613C13.8653 1.91613 13.2332 2.5459 13.2326 3.321C13.2326 4.09493 13.8653 4.72528 14.6433 4.72528C15.4213 4.72528 16.054 4.09493 16.054 3.321C16.054 2.5459 15.4213 1.91613 14.6433 1.91613Z" fill="#999CAA"/>
</svg>
