<svg width="26" height="30" viewBox="0 0 26 30" fill="none" xmlns="http://www.w3.org/2000/svg">
<path d="M24.5831 4.27472C24.9613 4.62783 25.1767 5.12219 25.1761 5.63989V10.3103C25.1761 27.5755 13.7954 29.7986 13.3162 29.8856C13.2076 29.9055 13.0961 29.9148 12.9858 29.9148C12.8755 29.9148 12.7652 29.9049 12.6555 29.8856C12.1757 29.7986 0.878433 27.5755 0.878433 10.3103V5.63989C0.878433 5.12336 1.0938 4.62958 1.47143 4.27647C1.81871 3.95195 2.27629 3.77219 2.74906 3.77219C2.78991 3.77219 2.83135 3.77394 2.87221 3.77686C2.90139 3.77861 3.20139 3.79729 3.67123 3.79729C4.44808 3.79729 5.99594 3.74417 7.43291 3.39047C9.62921 2.85176 11.8734 0.450008 11.9493 0.399231C12.2633 0.190281 12.6251 0.0852222 12.9864 0.0852222C13.3489 0.0852222 13.7107 0.190281 14.0242 0.400396C14.6481 0.817713 16.7919 2.93406 18.6496 3.39047C20.0878 3.74417 21.6064 3.79729 22.3839 3.79729C22.8537 3.79729 23.1537 3.77861 23.18 3.77686C23.2226 3.77394 23.2658 3.77219 23.3084 3.77219C23.78 3.77219 24.2364 3.95137 24.5831 4.27472ZM23.309 10.3103C23.309 6.23405 23.3084 5.63989 23.3084 5.63989C23.3084 5.63989 22.9553 5.66499 22.3839 5.66499C21.4045 5.66499 19.7854 5.59262 18.2037 5.20448C15.6205 4.57005 12.9864 1.95293 12.9864 1.95293C12.9864 1.95293 10.465 4.57005 7.87882 5.20448C6.29886 5.59262 4.6512 5.66499 3.67182 5.66499C3.09983 5.66499 2.7473 5.63989 2.7473 5.63989V10.3103C2.7473 26.2121 12.987 28.0471 12.987 28.0471C12.987 28.0471 23.309 26.2121 23.309 10.3103ZM16.985 10.1627C17.3498 10.5274 17.3498 11.1187 16.985 11.4829L14.3434 14.1245L16.985 16.7662C17.3498 17.1304 17.3498 17.7216 16.985 18.0864C16.6203 18.4512 16.029 18.4512 15.6648 18.0864L13.0232 15.4448L10.3815 18.0864C10.0173 18.4512 9.42552 18.4512 9.06073 18.0864C8.69594 17.7216 8.69594 17.1304 9.06073 16.7662L11.7024 14.1245L9.06073 11.4829C8.69594 11.1187 8.69594 10.5274 9.06073 10.1627C9.42552 9.79787 10.0173 9.79787 10.3815 10.1627L13.0232 12.8043L15.6648 10.1627C16.029 9.79787 16.6203 9.79787 16.985 10.1627Z" fill="#999CAA"/>
</svg>
