<svg width="31" height="30" viewBox="0 0 31 30" fill="none" xmlns="http://www.w3.org/2000/svg">
<path d="M30.0426 24.5707C30.2165 24.8935 30.1867 25.2886 29.9638 25.5799C29.742 25.8717 29.3714 26.0112 29.0118 25.9248L24.3245 24.8491L22.72 29.3176C22.5957 29.6631 22.2805 29.9036 21.914 29.9334C21.8895 29.9351 21.8649 29.9357 21.841 29.9357C21.5013 29.9357 21.1873 29.7518 21.0221 29.4507L16.141 20.5499C15.8247 20.5797 15.5042 20.5966 15.1797 20.5966C14.826 20.5966 14.4758 20.5785 14.1315 20.5435L9.35424 29.4437C9.19081 29.7489 8.8733 29.9363 8.53186 29.9363C8.5091 29.9363 8.48634 29.9357 8.46241 29.9334C8.09529 29.9065 7.77778 29.6655 7.65288 29.3182L6.0484 24.8497L1.36105 25.9248C1.00326 26.0088 0.62914 25.8711 0.40735 25.5787C0.18556 25.2851 0.156377 24.8882 0.333226 24.566L5.82253 14.5552C5.24003 13.2664 4.9126 11.8365 4.9126 10.3295C4.9126 4.65982 9.50891 0.062933 15.1803 0.062933C20.85 0.062933 25.4468 4.65924 25.4468 10.3295C25.4468 11.8009 25.1352 13.1993 24.5778 14.4647L30.0426 24.5707ZM8.70171 26.7122L12.2182 20.1618C10.0739 19.5162 8.22486 18.1902 6.9233 16.4322L2.97194 23.6398L6.43887 22.8448C6.89996 22.7351 7.3663 22.9943 7.52681 23.439L8.70171 26.7122ZM6.78848 10.3295C6.78848 14.9567 10.5531 18.7219 15.1809 18.7219C19.8075 18.7219 23.5716 14.9567 23.5716 10.3295C23.5716 5.70282 19.8075 1.93881 15.1809 1.93881C10.5537 1.93881 6.78848 5.70282 6.78848 10.3295ZM23.934 22.8448L27.4184 23.6439L23.4828 16.3674C22.1649 18.1767 20.271 19.5378 18.0694 20.1828L21.6636 26.7361L22.8461 23.439C23.0066 22.9943 23.4712 22.7357 23.934 22.8448Z" fill="#999CAA"/>
</svg>
